<?xml version="1.0" encoding="UTF-8" standalone="no"?>
<!-- Created with Inkscape (http://www.inkscape.org/) -->

<svg
   width="420.02802mm"
   height="420.02802mm"
   viewBox="0 0 420.02801 420.02802"
   version="1.1"
   id="svg24025"
   xmlns="http://www.w3.org/2000/svg"
   xmlns:svg="http://www.w3.org/2000/svg">
  <defs
     id="defs24022" />
  <g
     id="layer1"
     transform="translate(257.13693,47.585895)">
    <g
       id="g23526"
       transform="matrix(0.8897941,0,0,0.8897941,1109.3939,203.69027)">
      <g
         id="g22952"
         transform="matrix(1.0981703,0,0,1.0981703,134.63878,-8.7283912)">
        <path
           style="color:#000000;fill:#000000;stroke-linecap:round;stroke-linejoin:round;-inkscape-stroke:none"
           d="m -429.03516,81.322266 a 14.441544,14.441544 0 0 0 -7.5664,6.347656 l -47.90235,82.968748 -47.90234,82.9707 a 14.441544,14.441544 0 0 0 12.50391,21.66016 h 95.80468 95.80469 a 14.441544,14.441544 0 0 0 12.50586,-21.66016 l -47.90234,-82.9707 -47.90235,-82.968748 a 14.441544,14.441544 0 0 0 -17.44336,-6.347656 z m 4.9375,42.447264 35.39844,61.31055 35.39649,61.30859 h -70.79493 -70.79296 l 35.39648,-61.30859 z"
           id="path17046-6-4-9"
           transform="matrix(-1,0,0,-0.74934159,-1767.3082,113.93663)" />
        <path
           style="color:#000000;fill:#000000;stroke-linecap:round;stroke-linejoin:round;-inkscape-stroke:none"
           d="m -429.03516,81.322266 a 14.441544,14.441544 0 0 0 -7.5664,6.347656 l -47.90235,82.968748 -47.90234,82.9707 a 14.441544,14.441544 0 0 0 12.50391,21.66016 h 95.80468 95.80469 a 14.441544,14.441544 0 0 0 12.50586,-21.66016 l -47.90234,-82.9707 -47.90235,-82.968748 a 14.441544,14.441544 0 0 0 -17.44336,-6.347656 z m 4.9375,42.447264 35.39844,61.31055 35.39649,61.30859 h -70.79493 -70.79296 l 35.39648,-61.30859 z"
           id="path17046-6-4-9-0"
           transform="matrix(-1,0,0,-0.74934159,-1693.2244,113.93663)" />
      </g>
      <path
         style="color:#000000;fill:#000000;stroke-linecap:round;stroke-linejoin:round;-inkscape-stroke:none"
         d="m -1423.5957,-282.39844 c -61.9352,0 -112.1875,50.25227 -112.1875,112.1875 V 77.466797 c 0,61.935233 50.2523,112.185543 112.1875,112.185543 h 247.6758 c 61.9352,0 112.1875,-50.25031 112.1875,-112.185543 V -170.21094 c 0,-61.93523 -50.2523,-112.1875 -112.1875,-112.1875 z m 0,25 h 247.6758 c 48.5177,0 87.1875,38.66983 87.1875,87.1875 V 77.466797 c 0,48.517673 -38.6698,87.185543 -87.1875,87.185543 h -247.6758 c -48.5177,0 -87.1875,-38.66787 -87.1875,-87.185543 V -170.21094 c 0,-48.51767 38.6698,-87.1875 87.1875,-87.1875 z"
         id="rect22894" />
    </g>
  </g>
</svg>
