<?xml version="1.0" encoding="UTF-8" standalone="no"?>
<!-- Created with Inkscape (http://www.inkscape.org/) -->

<svg
   width="152.18388mm"
   height="152.6913mm"
   viewBox="0 0 152.18388 152.6913"
   version="1.1"
   id="svg24025"
   xmlns="http://www.w3.org/2000/svg"
   xmlns:svg="http://www.w3.org/2000/svg">
  <defs
     id="defs24022" />
  <g
     id="layer1"
     transform="translate(-32.126397,-11.854342)">
    <g
       id="g23234-8-4"
       transform="matrix(-0.36231824,0,0,0.36231824,-622.69791,133.4094)"
       style="fill:#000000">
      <path
         style="opacity:1;fill:#000000;fill-opacity:1;stroke:none;stroke-width:314.462;stroke-linecap:round;stroke-linejoin:round;stroke-miterlimit:4;stroke-dasharray:none;stroke-dashoffset:0;stroke-opacity:1;stop-color:#000000;stop-opacity:1"
         d="m -7896.2748,-396.81598 c -63.8106,-82.79692 -128.4466,-166.66393 -143.6355,-186.37112 l -27.6163,-35.83126 82.5292,0.19803 82.5292,0.19804 101.5057,132.30289 c 55.8281,72.76659 101.5057,133.98477 101.5057,136.0404 0,4.26406 -75.4215,103.94973 -78.672,103.98185 -1.1697,0.01 -54.3353,-67.72191 -118.146,-150.51883 z"
         id="path23151-8-0"
         transform="scale(0.26458333)" />
      <path
         style="opacity:1;fill:#000000;fill-opacity:1;stroke:none;stroke-width:314.462;stroke-linecap:round;stroke-linejoin:round;stroke-miterlimit:4;stroke-dasharray:none;stroke-dashoffset:0;stroke-opacity:1;stop-color:#000000;stop-opacity:1"
         d="m -7692.304,-531.14675 c -36.1663,-46.9094 -65.1586,-85.8881 -64.4274,-86.61935 0.7313,-0.73125 60.8733,-0.93775 133.6489,-0.45889 l 132.3192,0.87066 -65.1771,84.84377 c -35.8475,46.66407 -66.3989,85.25099 -67.892,85.7487 -1.4931,0.4977 -32.3054,-37.47549 -68.4716,-84.38489 z"
         id="path23153-8-5"
         transform="scale(0.26458333)" />
      <path
         style="opacity:1;fill:#000000;fill-opacity:1;stroke:none;stroke-width:314.462;stroke-linecap:round;stroke-linejoin:round;stroke-miterlimit:4;stroke-dasharray:none;stroke-dashoffset:0;stroke-opacity:1;stop-color:#000000;stop-opacity:1"
         d="m -7511.4217,-296.5668 c -21.0499,-27.63675 -38.0978,-52.13923 -37.8841,-54.44996 0.2138,-2.31072 45.8913,-63.47848 101.5057,-135.92835 l 101.1172,-131.72703 82.4744,-0.17311 82.4743,-0.17311 -23.7962,30.78452 c -13.0879,16.93148 -77.7211,100.79848 -143.6293,186.37112 -65.9083,85.57263 -120.7683,155.57715 -121.9113,155.56557 -1.1429,-0.0115 -19.3007,-22.63291 -40.3507,-50.26965 z"
         id="path23155-97-9"
         transform="scale(0.26458333)" />
      <path
         style="opacity:1;fill:#000000;fill-opacity:1;stroke:none;stroke-width:314.462;stroke-linecap:round;stroke-linejoin:round;stroke-miterlimit:4;stroke-dasharray:none;stroke-dashoffset:0;stroke-opacity:1;stop-color:#000000;stop-opacity:1"
         d="m -8122.1199,324.01308 c -145.8024,-17.99001 -251.6888,-109.1177 -288.968,-248.690926 l -7.229,-27.065347 V -470.91988 c 0,-481.62946 0.4171,-520.79827 5.7665,-541.59882 25.9461,-100.8893 89.9828,-180.0991 179.5218,-222.0585 34.2545,-16.0522 68.3268,-25.5462 107.5806,-29.9767 40.7479,-4.5991 960.997,-4.5991 1001.7448,0 123.1107,13.8952 226.3113,91.3371 271.0024,203.3607 23.5344,58.9916 21.8665,13.9689 21.8665,590.27332 V 48.256807 l -7.229,27.065347 c -33.5895,125.759006 -120.9514,210.549006 -250.6953,243.314816 -19.5302,4.93221 -70.305,5.51872 -522.5048,6.03556 -275.4798,0.31484 -505.3652,0.0166 -510.8565,-0.65945 z m 366.9168,-432.23573 c 20.2152,-6.00324 24.7346,-10.79488 85.6988,-90.85901 23.7956,-31.25074 44.0135,-56.8192 44.9287,-56.81883 0.9152,4e-4 21.1332,25.70227 44.9288,57.11526 68.0701,89.8605 71.794,93.13337 106.56,93.65242 39.2783,0.58643 36.3964,3.3795 153.9986,-149.25062 326.6172,-423.90018 306.8758,-397.48181 306.8624,-410.64979 -0.017,-17.14215 -10.7812,-33.03977 -27.5127,-40.63499 -13.7045,-6.22111 -29.1197,-6.38954 -584.8371,-6.38954 -555.7173,0 -571.1325,0.1684 -584.837,6.38954 -16.7547,7.60573 -27.4954,23.49727 -27.5128,40.70698 -0.013,13.01556 -14.5596,-6.39593 340.0723,453.81044 72.8185,94.49671 75.144,96.89671 102.5467,105.82844 9.4517,3.08072 22.1294,2.14041 39.1033,-2.9003 z"
         id="path23157-76-4"
         transform="scale(0.26458333)" />
    </g>
  </g>
</svg>
